<?xml version="1.0" encoding="utf-8"?>
<!-- Generator: Adobe Illustrator 19.0.0, SVG Export Plug-In . SVG Version: 6.00 Build 0)  -->
<svg version="1.1" id="Layer_1" xmlns="http://www.w3.org/2000/svg" xmlns:xlink="http://www.w3.org/1999/xlink" x="0px" y="0px"
	 viewBox="0 0 134.5 103" style="enable-background:new 0 0 134.5 103;" xml:space="preserve">
<style type="text/css">
	.st0{fill:#08AFFF;}
</style>
<g>
	<path class="st0" d="M117,76.2c-1.4,0-2.6-0.9-3-2.3c-9.1-32.6-24.1-53.2-44.5-61.1C39.5,1.3,7.6,21,7.3,21.2
		c-1.5,0.9-3.4,0.5-4.3-1S2.5,16.9,4,16c1.4-0.9,34.9-21.6,67.7-8.9c22.4,8.6,38.6,30.6,48.3,65.2c0.5,1.7-0.5,3.4-2.2,3.8
		C117.5,76.2,117.3,76.2,117,76.2z"/>
</g>
<g>
	<path class="st0" d="M128.1,69.4l-25.4,1.1c-2.4,0.1-3.7,2.8-2.4,4.7l16.8,24.5c1.4,2.1,4.6,1.6,5.4-0.7l8.6-25.6
		C131.8,71.4,130.3,69.3,128.1,69.4z"/>
</g>
</svg>
